<svg width="29" height="23" viewBox="0 0 29 23" fill="none" xmlns="http://www.w3.org/2000/svg">
<path fill-rule="evenodd" clip-rule="evenodd" d="M6.35344 0.832276H23.0687C23.6765 0.832259 24.2009 0.832244 24.635 0.861858C25.092 0.893039 25.5491 0.961629 26.0007 1.14868C27.0192 1.57056 27.8284 2.37976 28.2502 3.39826C28.4373 3.84985 28.5059 4.30696 28.5371 4.76396C28.5667 5.19799 28.5667 5.7224 28.5666 6.33018V17.5033C28.5667 18.111 28.5667 18.6355 28.5371 19.0695C28.5059 19.5265 28.4373 19.9836 28.2502 20.4352C27.8284 21.4537 27.0192 22.2629 26.0007 22.6848C25.5491 22.8718 25.092 22.9404 24.635 22.9716C24.2009 23.0012 23.6765 23.0012 23.0687 23.0012H6.35343C5.74566 23.0012 5.22124 23.0012 4.78721 22.9716C4.33021 22.9404 3.8731 22.8718 3.42151 22.6848C2.40301 22.2629 1.59382 21.4537 1.17194 20.4352C0.984884 19.9836 0.916293 19.5265 0.885113 19.0695C0.855499 18.6355 0.855514 18.111 0.855531 17.5033V6.33019C0.855514 5.72241 0.855499 5.19799 0.885113 4.76396C0.916293 4.30696 0.984884 3.84985 1.17194 3.39826C1.59382 2.37976 2.40301 1.57056 3.42151 1.14868C3.8731 0.961629 4.33021 0.893039 4.78721 0.861858C5.22125 0.832244 5.74566 0.832259 6.35344 0.832276ZM4.06667 3.98757C4.57057 3.41168 5.44591 3.35332 6.0218 3.85723L13.7989 10.6622C14.3213 11.1193 15.1013 11.1193 15.6237 10.6622L23.4007 3.85723C23.9766 3.35332 24.852 3.41168 25.3559 3.98757C25.8598 4.56345 25.8014 5.4388 25.2255 5.9427L17.4484 12.7476C15.8813 14.1189 13.5412 14.1189 11.9741 12.7476L4.19701 5.9427C3.62112 5.4388 3.56277 4.56345 4.06667 3.98757Z" fill="#06AA52"/>
</svg>
