<svg width="34" height="42" viewBox="0 0 34 42" fill="none" xmlns="http://www.w3.org/2000/svg">
<path fill-rule="evenodd" clip-rule="evenodd" d="M18.7056 27.2461C20.2821 28.3575 22.2347 28.9759 24.2553 29.0041C26.276 29.0323 28.2499 28.4685 29.8657 27.4017C31.4814 26.3348 32.6472 24.8257 33.1791 23.1122C33.711 21.3987 33.5788 19.5783 32.8034 17.9381C32.1543 16.5604 31.08 15.3696 29.7016 14.5001C30.8767 13.7598 31.834 12.784 32.4942 11.6536C33.1543 10.5231 33.4982 9.27067 33.4974 8.00004C33.4974 5.8783 32.5384 3.84346 30.8313 2.34316C29.1243 0.842859 26.809 6.02634e-09 24.3948 6.02634e-09H9.603C7.67605 -6.57205e-05 5.79879 0.537304 4.24151 1.53474C2.68423 2.53217 1.52728 3.9382 0.937239 5.55039C0.347199 7.16258 0.354513 8.89774 0.958127 10.506C1.56174 12.1143 2.73051 13.5128 4.29616 14.5001C3.12157 15.2407 2.1646 16.2166 1.50446 17.347C0.844321 18.4773 0.5 19.7296 0.5 21.0001C0.5 22.2706 0.844321 23.5229 1.50446 24.6532C2.1646 25.7836 3.12157 26.7595 4.29616 27.5001C3.02893 28.2993 2.0166 29.3713 1.3563 30.6132C0.695993 31.8551 0.409857 33.2252 0.525336 34.5923C0.640816 35.9593 1.15404 37.2773 2.01577 38.4199C2.8775 39.5625 4.05884 40.4913 5.44646 41.1172C6.83407 41.7432 8.38142 42.0453 9.94008 41.9945C11.4987 41.9437 13.0164 41.5418 14.3475 40.8274C15.6786 40.1129 16.7785 39.1098 17.5416 37.9143C18.3048 36.7188 18.7056 35.371 18.7056 34.0002V27.2461ZM9.603 3.00002C8.09414 3.00002 6.64708 3.5268 5.58016 4.46449C4.51324 5.40218 3.91385 6.67395 3.91385 8.00004C3.91385 9.32613 4.51324 10.5979 5.58016 11.5356C6.64708 12.4733 8.09414 13.0001 9.603 13.0001H15.2922V3.00002H9.603ZM15.2922 29.0002H9.603C8.47779 29.0002 7.37785 29.2934 6.44228 29.8428C5.5067 30.3922 4.77751 31.1731 4.34691 32.0868C3.91631 33.0004 3.80364 34.0057 4.02316 34.9756C4.24268 35.9455 4.78452 36.8365 5.58016 37.5357C6.3758 38.235 7.38951 38.7112 8.4931 38.9041C9.59669 39.0971 10.7406 38.998 11.7801 38.6196C12.8197 38.2412 13.7082 37.6003 14.3334 36.778C14.9585 35.9558 15.2922 34.9891 15.2922 34.0002V29.0002ZM9.603 16.0001C8.09414 16.0001 6.64708 16.5269 5.58016 17.4646C4.51324 18.4022 3.91385 19.674 3.91385 21.0001C3.91385 22.3262 4.51324 23.598 5.58016 24.5357C6.64708 25.4733 8.09414 26.0001 9.603 26.0001H15.2922V16.0001H9.603ZM18.7056 21.0001C18.7056 22.3265 19.3052 23.5985 20.3723 24.5364C21.4394 25.4742 22.8868 26.0011 24.3959 26.0011C25.9051 26.0011 27.3524 25.4742 28.4196 24.5364C29.4867 23.5985 30.0862 22.3265 30.0862 21.0001C30.0862 19.6738 29.4867 18.4017 28.4196 17.4639C27.3524 16.526 25.9051 15.9991 24.3959 15.9991C22.8868 15.9991 21.4394 16.526 20.3723 17.4639C19.3052 18.4017 18.7056 19.6738 18.7056 21.0001ZM24.3948 13.0001C25.9037 13.0001 27.3507 12.4733 28.4176 11.5356C29.4846 10.5979 30.084 9.32613 30.084 8.00004C30.084 6.67395 29.4846 5.40218 28.4176 4.46449C27.3507 3.5268 25.9037 3.00002 24.3948 3.00002H18.7056V13.0001H24.3948Z" fill="#06AA52"/>
</svg>
