<svg width="173" height="67" viewBox="0 0 173 67" fill="none" xmlns="http://www.w3.org/2000/svg">
<path d="M113.655 25.9725L111.9 25.68V24.2853H115.252C115.762 24.2853 116.422 24.2553 117.231 24.1953C117.426 24.1803 117.659 24.1653 117.929 24.1503C118.199 24.1353 118.514 24.1278 118.874 24.1278C121.138 24.1278 122.721 24.4502 123.62 25.0951C124.535 25.725 124.993 26.6699 124.993 27.9297C124.993 29.0395 124.655 29.9693 123.98 30.7192C123.32 31.4541 122.451 31.904 121.371 32.069C122.856 32.054 124.018 32.3914 124.858 33.0813C125.713 33.7712 126.14 34.731 126.14 35.9608C126.14 37.5206 125.593 38.7729 124.498 39.7177C123.403 40.6626 121.573 41.135 119.009 41.135C118.334 41.135 117.711 41.1125 117.141 41.0675C116.992 41.0675 116.737 41.0525 116.377 41.0225C116.017 41.0075 115.649 41 115.274 41H111.877V39.6502L113.655 39.4253V25.9725ZM116.917 31.5741C117.081 31.5891 117.419 31.5966 117.929 31.5966H118.986C119.901 31.5966 120.583 31.3116 121.033 30.7417C121.483 30.1718 121.708 29.3694 121.708 28.3346C121.708 27.3448 121.476 26.6249 121.011 26.175C120.546 25.725 119.774 25.5001 118.694 25.5001C118.409 25.5001 117.816 25.5301 116.917 25.59V31.5741ZM116.917 39.5152C117.261 39.6502 117.921 39.7177 118.896 39.7177C120.171 39.7177 121.093 39.4178 121.663 38.8179C122.233 38.218 122.518 37.3481 122.518 36.2083C122.518 35.1135 122.256 34.3336 121.731 33.8687C121.221 33.3888 120.403 33.1488 119.279 33.1488C118.019 33.1488 117.231 33.1638 116.917 33.1938V39.5152ZM127.402 37.4906C127.402 36.1258 128.084 35.0985 129.449 34.4086C130.828 33.7187 132.606 33.3663 134.78 33.3513V32.8339C134.78 32.219 134.713 31.739 134.578 31.3941C134.458 31.0491 134.225 30.7942 133.88 30.6292C133.551 30.4492 133.063 30.3593 132.418 30.3593C131.683 30.3593 131.023 30.4567 130.439 30.6517C129.854 30.8317 129.246 31.0716 128.616 31.3716L127.919 29.9318C128.144 29.7369 128.519 29.5044 129.044 29.2344C129.584 28.9645 130.221 28.732 130.956 28.5371C131.691 28.3271 132.448 28.2221 133.228 28.2221C134.383 28.2221 135.283 28.3721 135.928 28.672C136.588 28.972 137.06 29.4519 137.345 30.1118C137.63 30.7717 137.772 31.6565 137.772 32.7664V39.6502H138.987V40.91C138.687 40.985 138.26 41.06 137.705 41.135C137.15 41.21 136.663 41.2475 136.243 41.2475C135.733 41.2475 135.388 41.1725 135.208 41.0225C135.043 40.8725 134.96 40.5651 134.96 40.1001V39.4927C134.555 39.9427 134.03 40.3476 133.386 40.7075C132.741 41.0675 132.013 41.2475 131.203 41.2475C130.514 41.2475 129.876 41.105 129.291 40.82C128.721 40.5201 128.264 40.0927 127.919 39.5377C127.574 38.9678 127.402 38.2854 127.402 37.4906ZM132.643 39.3803C132.958 39.3803 133.318 39.2903 133.723 39.1103C134.128 38.9153 134.48 38.6829 134.78 38.4129V34.7235C133.431 34.7235 132.418 34.956 131.743 35.4209C131.083 35.8708 130.753 36.4558 130.753 37.1756C130.753 37.8955 130.918 38.4429 131.248 38.8179C131.593 39.1928 132.058 39.3803 132.643 39.3803ZM141.426 30.6292L139.986 30.2243V28.672L143.72 28.1996H143.788L144.35 28.6495V29.5269L144.328 30.0668C144.853 29.5719 145.535 29.1445 146.375 28.7845C147.215 28.4246 148.062 28.2446 148.917 28.2446C149.832 28.2446 150.544 28.4171 151.054 28.762C151.579 29.092 151.954 29.6169 152.179 30.3368C152.404 31.0566 152.517 32.0315 152.517 33.2613V39.4703L153.889 39.6502V41H148.085V39.6502L149.3 39.4703V33.2613C149.3 32.4814 149.247 31.874 149.142 31.4391C149.037 30.9892 148.842 30.6667 148.557 30.4717C148.287 30.2618 147.897 30.1568 147.387 30.1568C146.533 30.1568 145.618 30.5242 144.643 31.2591V39.4478L145.993 39.6502V41H140.121V39.6502L141.426 39.4478V30.6292ZM156.288 24.5552L154.669 24.2628V23.048L158.808 22.5531H158.853L159.46 22.9805V33.6662L159.393 34.8585L163.982 30.0443L162.317 29.7969V28.5146H168.189V29.7969L166.367 30.0893L163.6 32.7439L167.536 39.4703L168.774 39.6502V41H162.835V39.6502L163.982 39.4478L161.418 34.701L159.393 36.7482L159.438 37.8955V39.4478L160.855 39.6502V41H154.984V39.6502L156.288 39.4478V24.5552Z" fill="#8841B4"/>
<path d="M0.296143 8.45956C0.296143 3.94132 3.9589 0.278564 8.47714 0.278564H44.269V5.2456C44.269 9.76384 40.6062 13.4266 36.088 13.4266H0.296143V8.45956Z" fill="#8841B4"/>
<path d="M0.296158 16.7135H29.0476V21.6805C29.0476 26.1987 25.3849 29.8615 20.8666 29.8615H0.296158V16.7135Z" fill="#8841B4"/>
<path d="M0.296158 33.1484H12.135V38.1154C12.135 42.6337 8.47225 46.2964 3.95401 46.2964H0.296158V33.1484Z" fill="#8841B4"/>
<path d="M26.2897 34.4538C26.2897 33.0439 26.5672 31.844 27.1222 30.8541C27.6921 29.8642 28.4495 29.1218 29.3944 28.6269C30.3393 28.1169 31.3667 27.8619 32.4766 27.8619C34.3664 27.8619 35.8213 28.4469 36.8412 29.6168C37.8761 30.7716 38.3935 32.3465 38.3935 34.3413C38.3935 35.7661 38.1086 36.981 37.5386 37.9859C36.9837 38.9758 36.2337 39.7182 35.2888 40.2132C34.3589 40.6931 33.3315 40.9331 32.2066 40.9331C30.3318 40.9331 28.877 40.3557 27.8421 39.2008C26.8072 38.0309 26.2897 36.4486 26.2897 34.4538ZM32.3866 39.4708C34.0815 39.4708 34.9289 37.8359 34.9289 34.5663C34.9289 32.8564 34.7264 31.5591 34.3214 30.6741C33.9165 29.7742 33.2565 29.3243 32.3416 29.3243C30.6018 29.3243 29.7319 30.9591 29.7319 34.2288C29.7319 35.9386 29.9419 37.2435 30.3618 38.1434C30.7968 39.0283 31.4717 39.4708 32.3866 39.4708ZM40.4387 39.3583L41.9236 39.1783V30.3142L40.4837 29.9092V28.3569L43.9709 27.8844H44.0383L44.6008 28.3344V28.8293L44.5333 30.6516H44.6008C44.7058 30.3517 44.9533 29.9842 45.3432 29.5493C45.7332 29.0993 46.2206 28.7093 46.8056 28.3794C47.4055 28.0344 48.0504 27.8619 48.7404 27.8619C49.0703 27.8619 49.3553 27.9069 49.5953 27.9969V31.3716C49.1453 31.0566 48.5979 30.8991 47.953 30.8991C46.8581 30.8991 45.9057 31.1916 45.0957 31.7765V39.1558L47.7055 39.3583V40.6856H40.4387V39.3583ZM54.8081 40.8881C53.8632 40.8881 53.1658 40.6706 52.7158 40.2357C52.2658 39.8007 52.0409 39.1108 52.0409 38.1659V29.9092H50.5785V28.7393C50.6985 28.6943 50.916 28.6194 51.2309 28.5144C51.5459 28.3944 51.7859 28.2969 51.9509 28.2219C52.2058 28.0269 52.4233 27.6894 52.6033 27.2095C52.7383 26.8945 52.9858 26.1146 53.3457 24.8697H55.1456L55.2355 28.1769H58.6777V29.9092H55.258V36.2311C55.258 37.071 55.2805 37.6634 55.3255 38.0084C55.3705 38.3534 55.468 38.5784 55.618 38.6833C55.768 38.7733 56.0305 38.8183 56.4054 38.8183C56.7804 38.8183 57.1703 38.7808 57.5753 38.7058C57.9803 38.6158 58.3177 38.5109 58.5877 38.3909L59.0152 39.6507C58.5952 39.9657 57.9803 40.2507 57.1703 40.5057C56.3604 40.7606 55.573 40.8881 54.8081 40.8881ZM60.2121 39.3583L61.697 39.1783V30.3142L60.2571 29.9092V28.3569L63.7443 27.8844H63.8118L64.3742 28.3344V28.8293L64.3067 30.6516H64.3742C64.4792 30.3517 64.7267 29.9842 65.1166 29.5493C65.5066 29.0993 65.994 28.7093 66.579 28.3794C67.1789 28.0344 67.8238 27.8619 68.5138 27.8619C68.8437 27.8619 69.1287 27.9069 69.3687 27.9969V31.3716C68.9187 31.0566 68.3713 30.8991 67.7264 30.8991C66.6315 30.8991 65.6791 31.1916 64.8691 31.7765V39.1558L67.4789 39.3583V40.6856H60.2121V39.3583ZM76.4713 40.9331C74.4915 40.9331 73.0141 40.3557 72.0392 39.2008C71.0793 38.0309 70.5994 36.4411 70.5994 34.4313C70.5994 33.0814 70.8469 31.9115 71.3418 30.9216C71.8518 29.9317 72.5642 29.1743 73.4791 28.6493C74.394 28.1244 75.4514 27.8619 76.6513 27.8619C78.1511 27.8619 79.306 28.2594 80.1159 29.0543C80.9258 29.8342 81.3458 30.9516 81.3758 32.4065C81.3758 33.3964 81.3158 34.1313 81.1958 34.6112H73.8841C73.944 35.9761 74.2665 37.041 74.8515 37.8059C75.4364 38.5559 76.2688 38.9308 77.3487 38.9308C77.9336 38.9308 78.5336 38.8333 79.1485 38.6383C79.7785 38.4434 80.2734 38.2109 80.6334 37.9409L81.1958 39.1783C80.7909 39.6132 80.1309 40.0182 79.216 40.3932C78.3161 40.7531 77.4012 40.9331 76.4713 40.9331ZM78.2261 33.2614C78.2561 32.8414 78.2711 32.519 78.2711 32.294C78.2711 30.2992 77.6037 29.3018 76.2688 29.3018C75.5339 29.3018 74.9639 29.5943 74.559 30.1792C74.154 30.7641 73.9291 31.7915 73.8841 33.2614H78.2261ZM85.6685 38.8408C85.7885 39.0208 86.0584 39.1933 86.4784 39.3583C86.9134 39.5083 87.3483 39.5832 87.7833 39.5832C88.4882 39.5832 89.0131 39.4408 89.3581 39.1558C89.7181 38.8558 89.8981 38.4659 89.8981 37.9859C89.8981 37.491 89.6806 37.0935 89.2456 36.7935C88.8107 36.4786 88.0757 36.0961 87.0408 35.6461L86.4109 35.3762C85.376 34.9412 84.6036 34.4163 84.0936 33.8013C83.5837 33.1864 83.3287 32.3915 83.3287 31.4166C83.3287 30.7416 83.5312 30.1417 83.9362 29.6168C84.3411 29.0768 84.9111 28.6568 85.646 28.3569C86.3809 28.0569 87.2283 27.9069 88.1882 27.9069C88.8932 27.9069 89.4931 27.9519 89.988 28.0419C90.498 28.1319 91.0304 28.2519 91.5854 28.4019C91.8854 28.5069 92.1103 28.5669 92.2603 28.5819V31.5291H90.483L89.9655 29.8192C89.8756 29.6692 89.6731 29.5343 89.3581 29.4143C89.0431 29.2943 88.6832 29.2343 88.2782 29.2343C87.6633 29.2343 87.1683 29.3693 86.7934 29.6392C86.4334 29.8942 86.2534 30.2542 86.2534 30.7191C86.2534 31.1391 86.3809 31.4916 86.6359 31.7765C86.8909 32.0465 87.1683 32.2565 87.4683 32.4065C87.7683 32.5565 88.3232 32.8039 89.1331 33.1489C89.943 33.4939 90.6105 33.8238 91.1354 34.1388C91.6754 34.4538 92.1178 34.8662 92.4628 35.3762C92.8228 35.8711 93.0027 36.4786 93.0027 37.1985C93.0027 38.3084 92.5678 39.2083 91.6979 39.8982C90.828 40.5881 89.5756 40.9331 87.9407 40.9331C87.1758 40.9331 86.4859 40.8656 85.871 40.7306C85.271 40.5956 84.5736 40.4157 83.7787 40.1907L83.2837 40.0332V37.0635H85.151L85.6685 38.8408ZM97.3348 38.8408C97.4548 39.0208 97.7247 39.1933 98.1447 39.3583C98.5797 39.5083 99.0146 39.5832 99.4496 39.5832C100.154 39.5832 100.679 39.4408 101.024 39.1558C101.384 38.8558 101.564 38.4659 101.564 37.9859C101.564 37.491 101.347 37.0935 100.912 36.7935C100.477 36.4786 99.742 36.0961 98.7071 35.6461L98.0772 35.3762C97.0423 34.9412 96.2699 34.4163 95.7599 33.8013C95.25 33.1864 94.995 32.3915 94.995 31.4166C94.995 30.7416 95.1975 30.1417 95.6025 29.6168C96.0074 29.0768 96.5774 28.6568 97.3123 28.3569C98.0472 28.0569 98.8946 27.9069 99.8545 27.9069C100.559 27.9069 101.159 27.9519 101.654 28.0419C102.164 28.1319 102.697 28.2519 103.252 28.4019C103.552 28.5069 103.777 28.5669 103.927 28.5819V31.5291H102.149L101.632 29.8192C101.542 29.6692 101.339 29.5343 101.024 29.4143C100.709 29.2943 100.349 29.2343 99.9445 29.2343C99.3296 29.2343 98.8346 29.3693 98.4597 29.6392C98.0997 29.8942 97.9197 30.2542 97.9197 30.7191C97.9197 31.1391 98.0472 31.4916 98.3022 31.7765C98.5572 32.0465 98.8346 32.2565 99.1346 32.4065C99.4346 32.5565 99.9895 32.8039 100.799 33.1489C101.609 33.4939 102.277 33.8238 102.802 34.1388C103.342 34.4538 103.784 34.8662 104.129 35.3762C104.489 35.8711 104.669 36.4786 104.669 37.1985C104.669 38.3084 104.234 39.2083 103.364 39.8982C102.494 40.5881 101.242 40.9331 99.6071 40.9331C98.8421 40.9331 98.1522 40.8656 97.5373 40.7306C96.9373 40.5956 96.2399 40.4157 95.445 40.1907L94.95 40.0332V37.0635H96.8173L97.3348 38.8408Z" fill="#8841B4"/>
<path d="M1.62148 56.372C1.76348 56.1249 1.97385 55.9198 2.25258 55.7567C2.53658 55.5884 2.86528 55.5043 3.23869 55.5043C3.62261 55.5043 3.96972 55.5963 4.28001 55.7804C4.59556 55.9645 4.84275 56.2248 5.02156 56.5614C5.20037 56.8927 5.28978 57.2793 5.28978 57.721C5.28978 58.1575 5.20037 58.5467 5.02156 58.8886C4.84275 59.2304 4.59556 59.496 4.28001 59.6853C3.96972 59.8747 3.62261 59.9693 3.23869 59.9693C2.87054 59.9693 2.54447 59.8878 2.26047 59.7248C1.98174 59.5565 1.76874 59.3488 1.62148 59.1016V61.9494H0.903597V55.5753H1.62148V56.372ZM4.55612 57.721C4.55612 57.395 4.49038 57.111 4.3589 56.869C4.22742 56.6271 4.04861 56.443 3.82246 56.3168C3.60157 56.1906 3.35702 56.1275 3.0888 56.1275C2.82584 56.1275 2.58129 56.1932 2.35514 56.3247C2.13425 56.4509 1.95544 56.6376 1.8187 56.8848C1.68722 57.1267 1.62148 57.4081 1.62148 57.7289C1.62148 58.055 1.68722 58.3416 1.8187 58.5888C1.95544 58.8307 2.13425 59.0174 2.35514 59.1489C2.58129 59.2751 2.82584 59.3382 3.0888 59.3382C3.35702 59.3382 3.60157 59.2751 3.82246 59.1489C4.04861 59.0174 4.22742 58.8307 4.3589 58.5888C4.49038 58.3416 4.55612 58.0524 4.55612 57.721ZM5.8876 57.721C5.8876 57.2793 5.97701 56.8927 6.15582 56.5614C6.33464 56.2248 6.57919 55.9645 6.88948 55.7804C7.20504 55.5963 7.55477 55.5043 7.9387 55.5043C8.31736 55.5043 8.64606 55.5858 8.9248 55.7488C9.20354 55.9119 9.41128 56.117 9.54802 56.3642V55.5753H10.2738V59.8983H9.54802V59.0937C9.40602 59.3461 9.19302 59.5565 8.90902 59.7248C8.63028 59.8878 8.30421 59.9693 7.93081 59.9693C7.54689 59.9693 7.19978 59.8747 6.88948 59.6853C6.57919 59.496 6.33464 59.2304 6.15582 58.8886C5.97701 58.5467 5.8876 58.1575 5.8876 57.721ZM9.54802 57.7289C9.54802 57.4028 9.48228 57.1189 9.3508 56.8769C9.21931 56.635 9.0405 56.4509 8.81436 56.3247C8.59347 56.1932 8.34892 56.1275 8.0807 56.1275C7.81248 56.1275 7.56792 56.1906 7.34704 56.3168C7.12615 56.443 6.94996 56.6271 6.81848 56.869C6.687 57.111 6.62126 57.395 6.62126 57.721C6.62126 58.0524 6.687 58.3416 6.81848 58.5888C6.94996 58.8307 7.12615 59.0174 7.34704 59.1489C7.56792 59.2751 7.81248 59.3382 8.0807 59.3382C8.34892 59.3382 8.59347 59.2751 8.81436 59.1489C9.0405 59.0174 9.21931 58.8307 9.3508 58.5888C9.48228 58.3416 9.54802 58.055 9.54802 57.7289ZM15.1316 55.5753L12.5283 61.9337H11.7867L12.6387 59.851L10.8953 55.5753H11.692L13.0489 59.0779L14.39 55.5753H15.1316ZM20.9731 55.4964C21.3096 55.4964 21.6094 55.5674 21.8724 55.7094C22.1353 55.8461 22.3431 56.0539 22.4956 56.3326C22.6481 56.6113 22.7244 56.9506 22.7244 57.3503V59.8983H22.0144V57.4528C22.0144 57.0216 21.9066 56.6929 21.6909 56.4667C21.4806 56.2353 21.1939 56.1196 20.8311 56.1196C20.4577 56.1196 20.1605 56.2406 19.9396 56.4825C19.7187 56.7192 19.6083 57.0636 19.6083 57.5159V59.8983H18.8983V57.4528C18.8983 57.0216 18.7905 56.6929 18.5749 56.4667C18.3645 56.2353 18.0779 56.1196 17.715 56.1196C17.3416 56.1196 17.0444 56.2406 16.8235 56.4825C16.6027 56.7192 16.4922 57.0636 16.4922 57.5159V59.8983H15.7743V55.5753H16.4922V56.1985C16.6342 55.9723 16.8235 55.7988 17.0602 55.6778C17.3021 55.5569 17.5677 55.4964 17.857 55.4964C18.2199 55.4964 18.5407 55.5779 18.8194 55.7409C19.0981 55.904 19.3059 56.1433 19.4426 56.4588C19.5636 56.1538 19.7634 55.9171 20.0422 55.7488C20.3209 55.5805 20.6312 55.4964 20.9731 55.4964ZM27.7675 57.5711C27.7675 57.7079 27.7596 57.8525 27.7438 58.005H24.2885C24.3148 58.431 24.4594 58.765 24.7224 59.0069C24.9906 59.2436 25.3141 59.3619 25.6927 59.3619C26.003 59.3619 26.2607 59.2909 26.4658 59.1489C26.6762 59.0017 26.8235 58.8071 26.9076 58.5651H27.6807C27.565 58.9806 27.3336 59.3198 26.9865 59.5828C26.6394 59.8405 26.2081 59.9693 25.6927 59.9693C25.2825 59.9693 24.9144 59.8773 24.5883 59.6932C24.2675 59.5092 24.015 59.2488 23.831 58.9122C23.6469 58.5704 23.5549 58.176 23.5549 57.7289C23.5549 57.2819 23.6443 56.8901 23.8231 56.5535C24.0019 56.2169 24.2517 55.9592 24.5725 55.7804C24.8986 55.5963 25.272 55.5043 25.6927 55.5043C26.1029 55.5043 26.4658 55.5937 26.7814 55.7725C27.0969 55.9513 27.3389 56.1985 27.5072 56.514C27.6807 56.8243 27.7675 57.1767 27.7675 57.5711ZM27.0259 57.4213C27.0259 57.1478 26.9655 56.9137 26.8445 56.7192C26.7235 56.5193 26.5579 56.3694 26.3475 56.2695C26.1424 56.1643 25.9136 56.1117 25.6612 56.1117C25.2983 56.1117 24.988 56.2274 24.7303 56.4588C24.4779 56.6902 24.3332 57.011 24.2964 57.4213H27.0259ZM30.7425 55.4964C31.2684 55.4964 31.6944 55.6568 32.0205 55.9776C32.3466 56.2932 32.5096 56.7507 32.5096 57.3503V59.8983H31.7996V57.4528C31.7996 57.0216 31.6918 56.6929 31.4762 56.4667C31.2605 56.2353 30.966 56.1196 30.5926 56.1196C30.2139 56.1196 29.9115 56.2379 29.6854 56.4746C29.4645 56.7113 29.3541 57.0557 29.3541 57.508V59.8983H28.6362V55.5753H29.3541V56.1906C29.4961 55.9697 29.688 55.7988 29.9299 55.6778C30.1771 55.5569 30.448 55.4964 30.7425 55.4964ZM34.479 56.1669V58.715C34.479 58.9254 34.5237 59.0753 34.6131 59.1647C34.7025 59.2488 34.8577 59.2909 35.0786 59.2909H35.6071V59.8983H34.9602C34.5605 59.8983 34.2608 59.8063 34.0609 59.6222C33.8611 59.4382 33.7611 59.1358 33.7611 58.715V56.1669H33.201V55.5753H33.7611V54.4866H34.479V55.5753H35.6071V56.1669H34.479ZM43.6211 55.4964C43.9576 55.4964 44.2574 55.5674 44.5204 55.7094C44.7833 55.8461 44.9911 56.0539 45.1436 56.3326C45.2961 56.6113 45.3724 56.9506 45.3724 57.3503V59.8983H44.6624V57.4528C44.6624 57.0216 44.5546 56.6929 44.3389 56.4667C44.1286 56.2353 43.8419 56.1196 43.4791 56.1196C43.1057 56.1196 42.8085 56.2406 42.5876 56.4825C42.3667 56.7192 42.2563 57.0636 42.2563 57.5159V59.8983H41.5463V57.4528C41.5463 57.0216 41.4385 56.6929 41.2229 56.4667C41.0125 56.2353 40.7259 56.1196 40.363 56.1196C39.9896 56.1196 39.6924 56.2406 39.4715 56.4825C39.2506 56.7192 39.1402 57.0636 39.1402 57.5159V59.8983H38.4223V55.5753H39.1402V56.1985C39.2822 55.9723 39.4715 55.7988 39.7082 55.6778C39.9501 55.5569 40.2157 55.4964 40.505 55.4964C40.8679 55.4964 41.1887 55.5779 41.4674 55.7409C41.7461 55.904 41.9539 56.1433 42.0906 56.4588C42.2116 56.1538 42.4114 55.9171 42.6902 55.7488C42.9689 55.5805 43.2792 55.4964 43.6211 55.4964ZM46.2029 57.721C46.2029 57.2793 46.2923 56.8927 46.4711 56.5614C46.6499 56.2248 46.8944 55.9645 47.2047 55.7804C47.5203 55.5963 47.87 55.5043 48.2539 55.5043C48.6326 55.5043 48.9613 55.5858 49.2401 55.7488C49.5188 55.9119 49.7265 56.117 49.8633 56.3642V55.5753H50.589V59.8983H49.8633V59.0937C49.7213 59.3461 49.5083 59.5565 49.2243 59.7248C48.9455 59.8878 48.6195 59.9693 48.2461 59.9693C47.8621 59.9693 47.515 59.8747 47.2047 59.6853C46.8944 59.496 46.6499 59.2304 46.4711 58.8886C46.2923 58.5467 46.2029 58.1575 46.2029 57.721ZM49.8633 57.7289C49.8633 57.4028 49.7975 57.1189 49.666 56.8769C49.5346 56.635 49.3558 56.4509 49.1296 56.3247C48.9087 56.1932 48.6642 56.1275 48.3959 56.1275C48.1277 56.1275 47.8832 56.1906 47.6623 56.3168C47.4414 56.443 47.2652 56.6271 47.1337 56.869C47.0023 57.111 46.9365 57.395 46.9365 57.721C46.9365 58.0524 47.0023 58.3416 47.1337 58.5888C47.2652 58.8307 47.4414 59.0174 47.6623 59.1489C47.8832 59.2751 48.1277 59.3382 48.3959 59.3382C48.6642 59.3382 48.9087 59.2751 49.1296 59.1489C49.3558 59.0174 49.5346 58.8307 49.666 58.5888C49.7975 58.3416 49.8633 58.055 49.8633 57.7289ZM51.4551 57.721C51.4551 57.2793 51.5445 56.8927 51.7233 56.5614C51.9021 56.2248 52.1467 55.9645 52.457 55.7804C52.7725 55.5963 53.1249 55.5043 53.5141 55.5043C53.8507 55.5043 54.1636 55.5832 54.4528 55.7409C54.7421 55.8935 54.963 56.0959 55.1155 56.3484V54.0606H55.8413V59.8983H55.1155V59.0858C54.9735 59.3435 54.7631 59.5565 54.4844 59.7248C54.2057 59.8878 53.8796 59.9693 53.5062 59.9693C53.1223 59.9693 52.7725 59.8747 52.457 59.6853C52.1467 59.496 51.9021 59.2304 51.7233 58.8886C51.5445 58.5467 51.4551 58.1575 51.4551 57.721ZM55.1155 57.7289C55.1155 57.4028 55.0498 57.1189 54.9183 56.8769C54.7868 56.635 54.608 56.4509 54.3818 56.3247C54.1609 56.1932 53.9164 56.1275 53.6482 56.1275C53.38 56.1275 53.1354 56.1906 52.9145 56.3168C52.6936 56.443 52.5174 56.6271 52.386 56.869C52.2545 57.111 52.1887 57.395 52.1887 57.721C52.1887 58.0524 52.2545 58.3416 52.386 58.5888C52.5174 58.8307 52.6936 59.0174 52.9145 59.1489C53.1354 59.2751 53.38 59.3382 53.6482 59.3382C53.9164 59.3382 54.1609 59.2751 54.3818 59.1489C54.608 59.0174 54.7868 58.8307 54.9183 58.5888C55.0498 58.3416 55.1155 58.055 55.1155 57.7289ZM60.9199 57.5711C60.9199 57.7079 60.912 57.8525 60.8963 58.005H57.441C57.4673 58.431 57.6119 58.765 57.8749 59.0069C58.1431 59.2436 58.4665 59.3619 58.8452 59.3619C59.1555 59.3619 59.4132 59.2909 59.6183 59.1489C59.8286 59.0017 59.9759 58.8071 60.0601 58.5651H60.8332C60.7175 58.9806 60.4861 59.3198 60.1389 59.5828C59.7918 59.8405 59.3606 59.9693 58.8452 59.9693C58.435 59.9693 58.0668 59.8773 57.7407 59.6932C57.4199 59.5092 57.1675 59.2488 56.9834 58.9122C56.7993 58.5704 56.7073 58.176 56.7073 57.7289C56.7073 57.2819 56.7967 56.8901 56.9755 56.5535C57.1543 56.2169 57.4042 55.9592 57.725 55.7804C58.051 55.5963 58.4244 55.5043 58.8452 55.5043C59.2554 55.5043 59.6183 55.5937 59.9338 55.7725C60.2494 55.9513 60.4913 56.1985 60.6596 56.514C60.8332 56.8243 60.9199 57.1767 60.9199 57.5711ZM60.1784 57.4213C60.1784 57.1478 60.1179 56.9137 59.9969 56.7192C59.876 56.5193 59.7103 56.3694 59.4999 56.2695C59.2948 56.1643 59.0661 56.1117 58.8136 56.1117C58.4507 56.1117 58.1404 56.2274 57.8827 56.4588C57.6303 56.6902 57.4857 57.011 57.4489 57.4213H60.1784ZM67.7573 57.5711C67.7573 57.7079 67.7494 57.8525 67.7337 58.005H64.2784C64.3047 58.431 64.4493 58.765 64.7122 59.0069C64.9805 59.2436 65.3039 59.3619 65.6826 59.3619C65.9929 59.3619 66.2506 59.2909 66.4557 59.1489C66.666 59.0017 66.8133 58.8071 66.8974 58.5651H67.6705C67.5548 58.9806 67.3234 59.3198 66.9763 59.5828C66.6292 59.8405 66.198 59.9693 65.6826 59.9693C65.2723 59.9693 64.9042 59.8773 64.5781 59.6932C64.2573 59.5092 64.0049 59.2488 63.8208 58.9122C63.6367 58.5704 63.5447 58.176 63.5447 57.7289C63.5447 57.2819 63.6341 56.8901 63.8129 56.5535C63.9917 56.2169 64.2415 55.9592 64.5624 55.7804C64.8884 55.5963 65.2618 55.5043 65.6826 55.5043C66.0928 55.5043 66.4557 55.5937 66.7712 55.7725C67.0868 55.9513 67.3287 56.1985 67.497 56.514C67.6705 56.8243 67.7573 57.1767 67.7573 57.5711ZM67.0158 57.4213C67.0158 57.1478 66.9553 56.9137 66.8343 56.7192C66.7134 56.5193 66.5477 56.3694 66.3373 56.2695C66.1322 56.1643 65.9035 56.1117 65.651 56.1117C65.2881 56.1117 64.9778 56.2274 64.7201 56.4588C64.4677 56.6902 64.3231 57.011 64.2862 57.4213H67.0158ZM68.3578 57.721C68.3578 57.2793 68.4472 56.8927 68.626 56.5614C68.8048 56.2248 69.0494 55.9645 69.3597 55.7804C69.6752 55.5963 70.025 55.5043 70.4089 55.5043C70.7876 55.5043 71.1163 55.5858 71.395 55.7488C71.6737 55.9119 71.8815 56.117 72.0182 56.3642V55.5753H72.744V59.8983H72.0182V59.0937C71.8762 59.3461 71.6632 59.5565 71.3792 59.7248C71.1005 59.8878 70.7744 59.9693 70.401 59.9693C70.0171 59.9693 69.67 59.8747 69.3597 59.6853C69.0494 59.496 68.8048 59.2304 68.626 58.8886C68.4472 58.5467 68.3578 58.1575 68.3578 57.721ZM72.0182 57.7289C72.0182 57.4028 71.9525 57.1189 71.821 56.8769C71.6895 56.635 71.5107 56.4509 71.2845 56.3247C71.0637 56.1932 70.8191 56.1275 70.5509 56.1275C70.2827 56.1275 70.0381 56.1906 69.8172 56.3168C69.5963 56.443 69.4202 56.6271 69.2887 56.869C69.1572 57.111 69.0915 57.395 69.0915 57.721C69.0915 58.0524 69.1572 58.3416 69.2887 58.5888C69.4202 58.8307 69.5963 59.0174 69.8172 59.1489C70.0381 59.2751 70.2827 59.3382 70.5509 59.3382C70.8191 59.3382 71.0637 59.2751 71.2845 59.1489C71.5107 59.0174 71.6895 58.8307 71.821 58.5888C71.9525 58.3416 72.0182 58.055 72.0182 57.7289ZM75.4087 59.9693C75.0773 59.9693 74.7802 59.9141 74.5172 59.8037C74.2543 59.688 74.0465 59.5302 73.894 59.3304C73.7415 59.1252 73.6574 58.8912 73.6416 58.6282H74.3831C74.4042 58.8439 74.5041 59.0201 74.6829 59.1568C74.867 59.2935 75.1063 59.3619 75.4008 59.3619C75.6743 59.3619 75.8899 59.3014 76.0477 59.1805C76.2054 59.0595 76.2843 58.907 76.2843 58.7229C76.2843 58.5336 76.2002 58.3942 76.0319 58.3048C75.8636 58.2101 75.6033 58.1181 75.2509 58.0287C74.9301 57.9445 74.6671 57.8604 74.462 57.7763C74.2622 57.6868 74.0886 57.558 73.9414 57.3897C73.7994 57.2161 73.7284 56.99 73.7284 56.7113C73.7284 56.4904 73.7941 56.2879 73.9256 56.1038C74.0571 55.9198 74.2438 55.7751 74.4857 55.6699C74.7276 55.5595 75.0037 55.5043 75.314 55.5043C75.7926 55.5043 76.1791 55.6252 76.4737 55.8672C76.7682 56.1091 76.926 56.4404 76.947 56.8612H76.2291C76.2133 56.635 76.1213 56.4536 75.953 56.3168C75.79 56.1801 75.5691 56.1117 75.2903 56.1117C75.0326 56.1117 74.8275 56.1669 74.675 56.2774C74.5225 56.3878 74.4462 56.5324 74.4462 56.7113C74.4462 56.8533 74.4909 56.9716 74.5803 57.0663C74.675 57.1557 74.7907 57.2293 74.9275 57.2871C75.0695 57.3397 75.264 57.4002 75.5112 57.4686C75.8215 57.5527 76.074 57.6369 76.2686 57.721C76.4631 57.7999 76.6288 57.9209 76.7656 58.0839C76.9076 58.247 76.9812 58.46 76.9864 58.7229C76.9864 58.9596 76.9207 59.1726 76.7892 59.3619C76.6577 59.5512 76.471 59.7011 76.2291 59.8116C75.9924 59.9168 75.719 59.9693 75.4087 59.9693ZM81.6445 55.5753L79.0412 61.9337H78.2996L79.1516 59.851L77.4082 55.5753H78.205L79.5618 59.0779L80.9029 55.5753H81.6445Z" fill="#8841B4"/>
</svg>
