<svg width="31" height="29" viewBox="0 0 31 29" fill="none" xmlns="http://www.w3.org/2000/svg">
<path d="M6.60006 3.47689C6.59964 4.31232 6.26736 5.11337 5.67633 5.70381C5.08529 6.29425 4.28391 6.62573 3.44848 6.62531C2.61304 6.62489 1.81199 6.29262 1.22155 5.70158C0.631105 5.11055 0.299632 4.30917 0.300049 3.47374C0.300467 2.63831 0.632742 1.83726 1.22378 1.24682C1.81481 0.656373 2.61619 0.3249 3.45163 0.325318C4.28706 0.325735 5.08811 0.65801 5.67855 1.24904C6.269 1.84008 6.60047 2.64146 6.60006 3.47689ZM6.69455 8.95788H0.394549V28.6769H6.69455V8.95788ZM16.6486 8.95788H10.3801V28.6769H16.5856V18.3291C16.5856 12.5646 24.0983 12.0291 24.0983 18.3291V28.6769H30.3196V16.1871C30.3196 6.46939 19.2001 6.83163 16.5856 11.6039L16.6486 8.95788Z" fill="#06AA52"/>
</svg>
