<svg width="29" height="29" viewBox="0 0 29 29" fill="none" xmlns="http://www.w3.org/2000/svg">
<path fill-rule="evenodd" clip-rule="evenodd" d="M1.05074 4.18383C1.32696 2.14364 3.12723 0.855591 4.9984 0.855591H8.55712C10.3463 0.855591 11.9347 2.00046 12.5005 3.6978L13.9545 8.05997C14.5795 9.9349 13.476 11.945 11.5587 12.4244C11.0899 12.5416 10.9282 13.1254 11.2699 13.4671L15.9551 18.1524C16.2968 18.4941 16.8806 18.3323 16.9978 17.8635C17.4772 15.9462 19.4873 14.8427 21.3623 15.4677L25.7244 16.9218C27.4218 17.4875 28.5666 19.076 28.5666 20.8651V24.4238C28.5666 26.295 27.2786 28.0953 25.2384 28.3715C24.2872 28.5003 23.3168 28.5667 22.3316 28.5667C10.4707 28.5667 0.85553 18.9515 0.85553 7.09059C0.85553 6.10543 0.921955 5.13505 1.05074 4.18383Z" fill="#06AA52"/>
</svg>
