<svg width="49" height="48" viewBox="0 0 49 48" fill="none" xmlns="http://www.w3.org/2000/svg">
<path d="M37.4399 44.2141H29.4399C27.2489 44.2141 25.7439 43.6156 24.784 42.6557C23.8242 41.6959 23.2256 40.1908 23.2256 37.9999V9.99986C23.2256 7.80892 23.8242 6.30384 24.784 5.344C25.7439 4.38416 27.2489 3.78558 29.4399 3.78558H37.4399C39.6308 3.78558 41.1359 4.38416 42.0957 5.344C43.0556 6.30384 43.6542 7.80892 43.6542 9.99986V37.9999C43.6542 40.1883 43.052 41.6939 42.0891 42.6548C41.1259 43.6162 39.6196 44.2141 37.4399 44.2141ZM29.4399 4.21415C27.7147 4.21415 26.1769 4.57462 25.0957 5.65573C24.0146 6.73683 23.6542 8.27466 23.6542 9.99986V37.9999C23.6542 39.7251 24.0146 41.2629 25.0957 42.344C26.1769 43.4251 27.7147 43.7856 29.4399 43.7856H37.4399C39.1651 43.7856 40.7029 43.4251 41.784 42.344C42.8651 41.2629 43.2256 39.7251 43.2256 37.9999V9.99986C43.2256 8.27466 42.8651 6.73683 41.784 5.65573C40.7029 4.57462 39.1651 4.21415 37.4399 4.21415H29.4399Z" stroke="#06AA52" stroke-width="2.57143"/>
<path d="M33.4399 12.2143H23.4399C23.3916 12.2143 23.338 12.1948 23.2915 12.1484C23.245 12.1019 23.2256 12.0482 23.2256 12C23.2256 11.9518 23.245 11.8981 23.2915 11.8516C23.338 11.8052 23.3916 11.7857 23.4399 11.7857H33.4399C33.4881 11.7857 33.5418 11.8052 33.5882 11.8516C33.6347 11.8981 33.6542 11.9518 33.6542 12C33.6542 12.0482 33.6347 12.1019 33.5882 12.1484C33.5418 12.1948 33.4881 12.2143 33.4399 12.2143Z" stroke="#06AA52" stroke-width="2.57143"/>
<path d="M31.4399 36.2143H23.4399C23.3916 36.2143 23.338 36.1948 23.2915 36.1484C23.245 36.1019 23.2256 36.0482 23.2256 36C23.2256 35.9518 23.245 35.8981 23.2915 35.8516C23.338 35.8052 23.3916 35.7857 23.4399 35.7857H31.4399C31.4881 35.7857 31.5418 35.8052 31.5882 35.8516C31.6347 35.8981 31.6542 35.9518 31.6542 36C31.6542 36.0482 31.6347 36.1019 31.5882 36.1484C31.5418 36.1948 31.4881 36.2143 31.4399 36.2143Z" stroke="#06AA52" stroke-width="2.57143"/>
<path d="M23.4327 28.1142L23.4327 28.1141H23.4199C23.3152 28.1141 23.2226 28.0219 23.2252 27.9104L23.2256 27.8951V27.8798C23.2256 27.7922 23.3074 27.6855 23.4399 27.6855H23.4399H23.4399H23.4399H23.4399H23.4399H23.4399H23.4399H23.4399H23.4399H23.4399H23.4399H23.4399H23.4399H23.4399H23.4399H23.4399H23.4399H23.4399H23.4399H23.4399H23.4399H23.4399H23.4399H23.4399H23.4399H23.4399H23.4399H23.4399H23.4399H23.4399H23.4399H23.4399H23.4399H23.4399H23.4399H23.4399H23.4399H23.4399H23.4399H23.4399H23.4399H23.44H23.44H23.44H23.44H23.44H23.44H23.44H23.44H23.44H23.44H23.44H23.44H23.44H23.44H23.44H23.44H23.44H23.44H23.44H23.44H23.44H23.44H23.44H23.44H23.44H23.44H23.44H23.4401H23.4401H23.4401H23.4401H23.4401H23.4401H23.4401H23.4401H23.4401H23.4401H23.4401H23.4401H23.4401H23.4401H23.4401H23.4401H23.4401H23.4401H23.4402H23.4402H23.4402H23.4402H23.4402H23.4402H23.4402H23.4402H23.4402H23.4402H23.4402H23.4402H23.4402H23.4402H23.4403H23.4403H23.4403H23.4403H23.4403H23.4403H23.4403H23.4403H23.4403H23.4403H23.4403H23.4404H23.4404H23.4404H23.4404H23.4404H23.4404H23.4404H23.4404H23.4404H23.4404H23.4405H23.4405H23.4405H23.4405H23.4405H23.4405H23.4405H23.4405H23.4406H23.4406H23.4406H23.4406H23.4406H23.4406H23.4406H23.4406H23.4407H23.4407H23.4407H23.4407H23.4407H23.4407H23.4407H23.4408H23.4408H23.4408H23.4408H23.4408H23.4408H23.4408H23.4409H23.4409H23.4409H23.4409H23.4409H23.4409H23.441H23.441H23.441H23.441H23.441H23.441H23.4411H23.4411H23.4411H23.4411H23.4411H23.4411H23.4412H23.4412H23.4412H23.4412H23.4412H23.4413H23.4413H23.4413H23.4413H23.4413H23.4414H23.4414H23.4414H23.4414H23.4414H23.4415H23.4415H23.4415H23.4415H23.4416H23.4416H23.4416H23.4416H23.4416H23.4417H23.4417H23.4417H23.4417H23.4418H23.4418H23.4418H23.4418H23.4419H23.4419H23.4419H23.4419H23.442H23.442H23.442H23.442H23.4421H23.4421H23.4421H23.4422H23.4422H23.4422H23.4422H23.4423H23.4423H23.4423H23.4424H23.4424H23.4424H23.4424H23.4425H23.4425H23.4425H23.4426H23.4426H23.4426H23.4427H23.4427H23.4427H23.4428H23.4428H23.4428H23.4428H23.4429H23.4429H23.4429H23.443H23.443H23.443H23.4431H23.4431H23.4432H23.4432H23.4432H23.4433H23.4433H23.4433H23.4434H23.4434H23.4434H23.4435H23.4435H23.4436H23.4436H23.4436H23.4437H23.4437H23.4437H23.4438H23.4438H23.4439H23.4439H23.4439H23.444H23.444H23.4441H23.4441H23.4442H23.4442H23.4442H23.4443H23.4443H23.4444H23.4444H23.4445H23.4445H23.4445H23.4446H23.4446H23.4447H23.4447H23.4448H23.4448H23.4449H23.4449H23.445H23.445H23.445H23.4451H23.4451H23.4452H23.4452H23.4453H23.4453H23.4454H23.4454H23.4455H23.4455H23.4456H23.4456H23.4457H23.4457H23.4458H23.4458H23.4459H23.4459H23.446H23.4461H23.4461H23.4462H23.4462H23.4463H23.4463H23.4464H23.4464H23.4465H23.4465H23.4466H23.4467H23.4467H23.4468H23.4468H23.4469H23.447H23.447H23.4471H23.4471H23.4472H23.4472H23.4473H23.4474H23.4474H23.4475H23.4476H23.4476H23.4477H23.4477H23.4478H23.4479H23.4479H23.448H23.4481H23.4481H23.4482H23.4483H23.4483H23.4484H23.4485H23.4485H23.4486H23.4487H23.4487H23.4488H23.4489H23.4489H23.449H23.4491H23.4491H23.4492H23.4493H23.4493H23.4494H23.4495H23.4496H23.4496H23.4497H23.4498H23.4499H23.4499H23.45H23.4501H23.4502H23.4502H23.4503H23.4504H23.4505H23.4505H23.4506H23.4507H23.4508H23.4508H23.4509H23.451H23.4511H23.4512H23.4512H23.4513H23.4514H23.4515H23.4516H23.4516H23.4517H23.4518H23.4519H23.452H23.4521H23.4521H23.4522H23.4523H23.4524H23.4525H23.4526H23.4527H23.4527H23.4528H23.4529H23.453H23.4531H23.4532H23.4533H23.4534H23.4535H23.4536H23.4536H23.4537H23.4538H23.4539H23.454H23.4541H23.4542H23.4543H23.4544H23.4545H23.4546H23.4547H23.4548H23.4549L33.447 27.7855L33.447 27.7855H33.4599C33.5645 27.7855 33.6572 27.8778 33.6545 27.9892L34.9399 28.0198L33.6545 27.9885C33.6512 28.1274 33.5463 28.2123 33.4433 28.2141L23.4327 28.1142Z" stroke="#06AA52" stroke-width="2.57143"/>
<path d="M29.4399 20.2144H23.4399C23.3916 20.2144 23.338 20.195 23.2915 20.1485C23.245 20.102 23.2256 20.0484 23.2256 20.0001C23.2256 19.9519 23.245 19.8983 23.2915 19.8518C23.338 19.8053 23.3916 19.7859 23.4399 19.7859H29.4399C29.4881 19.7859 29.5418 19.8053 29.5882 19.8518C29.6347 19.8983 29.6542 19.9519 29.6542 20.0001C29.6542 20.0484 29.6347 20.102 29.5882 20.1485C29.5418 20.195 29.4881 20.2144 29.4399 20.2144Z" stroke="#06AA52" stroke-width="2.57143"/>
<path d="M7.8615 41.6967L7.86106 41.696L6.22249 38.9784C6.22224 38.978 6.22199 38.9775 6.22175 38.9771C5.7399 38.1733 5.34571 36.7624 5.34571 35.8399V9.89986C5.34571 6.52994 8.09008 3.78558 11.46 3.78558C14.8299 3.78558 17.5743 6.52994 17.5743 9.89986V35.8199C17.5743 36.7423 17.1802 38.1531 16.6984 38.9569C16.6981 38.9574 16.6978 38.9579 16.6975 38.9584L15.0589 41.676L15.0522 41.6871L15.0458 41.6983C14.0743 43.3857 12.7298 44.1541 11.48 44.1541C10.2288 44.1541 8.87694 43.3834 7.8615 41.6967ZM6.59391 38.7353L6.59388 38.7353L6.59894 38.7437L8.23564 41.4582C8.23626 41.4593 8.23688 41.4603 8.2375 41.4614C8.94479 42.6463 10.0634 43.7056 11.48 43.7056C12.9059 43.7056 14.0229 42.6123 14.7187 41.4677L14.7211 41.4637L16.3611 38.7437L16.3611 38.7438L16.3661 38.7353C16.6092 38.3251 16.8008 37.7915 16.9301 37.3194C17.0593 36.8475 17.1657 36.2927 17.1657 35.8199V9.89986C17.1657 6.76978 14.6101 4.21415 11.48 4.21415C8.34992 4.21415 5.79428 6.76978 5.79428 9.89986V35.8199C5.79428 36.2927 5.90072 36.8475 6.02993 37.3194C6.1592 37.7915 6.35081 38.3251 6.59391 38.7353Z" stroke="#06AA52" stroke-width="2.57143"/>
<path d="M17.38 14.2144H5.56C5.51176 14.2144 5.45811 14.195 5.41163 14.1485C5.36516 14.102 5.34571 14.0484 5.34571 14.0001C5.34571 13.9519 5.36516 13.8983 5.41163 13.8518C5.45811 13.8053 5.51176 13.7859 5.56 13.7859H17.38C17.4282 13.7859 17.4819 13.8053 17.5284 13.8518C17.5748 13.8983 17.5943 13.9519 17.5943 14.0001C17.5943 14.0484 17.5748 14.102 17.5284 14.1485C17.4819 14.195 17.4282 14.2144 17.38 14.2144Z" stroke="#06AA52" stroke-width="2.57143"/>
</svg>
