<svg width="35" height="29" viewBox="0 0 35 29" fill="none" xmlns="http://www.w3.org/2000/svg">
<path d="M34.3774 3.72586C33.1206 4.26803 31.7528 4.65823 30.344 4.8102C31.8067 3.94123 32.902 2.56839 33.4245 0.949267C32.052 1.76577 30.5483 2.33832 28.9803 2.64151C28.325 1.9409 27.5324 1.38276 26.6519 1.00187C25.7714 0.620985 24.8219 0.42551 23.8626 0.427629C19.9811 0.427629 16.8595 3.57388 16.8595 7.43482C16.8595 7.97699 16.9252 8.51917 17.032 9.04081C11.22 8.73686 6.03653 5.96027 2.59045 1.70913C1.96253 2.78163 1.63348 4.0028 1.63753 5.24559C1.63753 7.67716 2.87385 9.82121 4.75914 11.0822C3.64811 11.0384 2.5631 10.733 1.59235 10.1909V10.2771C1.59235 13.6821 3.99928 16.5039 7.20714 17.1529C6.60483 17.3093 5.98522 17.3894 5.36292 17.3911C4.90701 17.3911 4.47573 17.3459 4.04035 17.2843C4.92754 20.0609 7.51108 22.0776 10.5875 22.1434C8.18058 24.0286 5.16577 25.1376 1.89219 25.1376C1.30484 25.1376 0.762662 25.1171 0.199951 25.0514C3.30513 27.0435 6.98945 28.1935 10.9572 28.1935C23.8379 28.1935 30.8862 17.5225 30.8862 8.2604C30.8862 7.95646 30.8862 7.65251 30.8656 7.34857C32.2293 6.35047 33.4245 5.11415 34.3774 3.72586Z" fill="#06AA52"/>
</svg>
